<?xml version="1.0" encoding="UTF-8" standalone="no"?>
<svg
   xmlns:dc="http://purl.org/dc/elements/1.1/"
   xmlns:cc="http://creativecommons.org/ns#"
   xmlns:rdf="http://www.w3.org/1999/02/22-rdf-syntax-ns#"
   xmlns:svg="http://www.w3.org/2000/svg"
   xmlns="http://www.w3.org/2000/svg"
   id="svg4179"
   width="64.000008"
   height="64"
   version="1.1">
  <metadata
     id="metadata4756">
    <rdf:RDF>
      <cc:Work
         rdf:about="">
        <dc:format>image/svg+xml</dc:format>
        <dc:type
           rdf:resource="http://purl.org/dc/dcmitype/StillImage" />
        <dc:title></dc:title>
      </cc:Work>
    </rdf:RDF>
  </metadata>
  <defs
     id="defs4754" />
  <path
     d="m 35,8 10,1.395e-4 C 45,31.390999 51.893731,37.167678 55,38 c 3.736197,1.001111 9.699137,0.341265 8,-6 -1.699137,-6.341265 -12,-0.780529 -12,-24 9.56739,0 10.078595,4.56127 11,8 l 2,0 C 64,0.07020928 54.832082,0 48,0 l -36.000015,0 3e-5,8 L 29,8 29,56 19,55.999861 C 19,32.609001 12.106269,26.832322 9,26 5.263803,24.998889 -0.699137,25.658735 0.99999995,32 2.699137,38.341265 13,32.780529 13,56 3.43261,56 2.921405,51.43873 2,48 l -2,0 c 0,15.929791 9.167918,16 16,16 l 36.000015,0 -3e-5,-8 L 35,56 Z"
     style="fill:#000000;fill-opacity:1;stroke:none"
     id="path4750-3" />
</svg>
