<?xml version="1.0" standalone="no"?>
<!DOCTYPE svg PUBLIC "-//W3C//DTD SVG 20010904//EN"
 "http://www.w3.org/TR/2001/REC-SVG-20010904/DTD/svg10.dtd">
<svg version="1.0" xmlns="http://www.w3.org/2000/svg"
 width="700.000000pt" height="700.000000pt" viewBox="0 0 700.000000 700.000000"
 preserveAspectRatio="xMidYMid meet">
<metadata>
Created by potrace 1.11, written by Peter Selinger 2001-2013
</metadata>
<g transform="translate(0.000000,700.000000) scale(0.100000,-0.100000)"
fill="#000000" stroke="none">
<path d="M2 6618 l3 -383 1582 0 c870 -1 1584 -3 1586 -5 2 -3 169 -504 372
-1115 203 -610 370 -1114 372 -1120 5 -10 -9 7 -49 61 -30 42 -128 114 -213
157 -69 34 -205 81 -267 92 -17 3 -34 8 -38 10 -17 10 -95 17 -235 21 -122 3
-166 0 -238 -16 -225 -50 -377 -181 -433 -375 -24 -82 -23 -263 0 -370 16 -69
78 -280 213 -725 19 -63 37 -124 40 -135 3 -11 30 -101 60 -200 30 -99 56
-187 58 -195 2 -8 46 -157 99 -330 224 -744 249 -827 256 -855 4 -16 31 -104
58 -195 28 -90 47 -167 42 -170 -10 -6 -1408 -6 -1413 0 -35 43 -357 689 -357
716 0 6 -7 23 -48 114 -11 25 -41 106 -66 180 -26 74 -51 145 -56 157 -21 50
-105 376 -125 483 -2 14 -9 50 -16 80 -6 30 -12 66 -14 80 -3 28 -13 108 -20
160 -27 200 -27 673 0 810 3 14 8 50 11 80 3 30 7 63 10 72 3 9 7 27 9 40 40
206 80 352 150 543 102 277 216 494 471 902 158 251 189 315 189 381 0 62 -19
84 -88 103 -49 14 -238 19 -282 8 -16 -4 -61 -15 -100 -25 -155 -37 -337 -148
-479 -290 -157 -159 -270 -340 -396 -639 -27 -65 -94 -289 -105 -354 -3 -19
-8 -37 -10 -41 -4 -6 -38 -205 -49 -285 -39 -281 -25 -819 29 -1125 3 -14 12
-65 20 -115 57 -334 191 -788 343 -1155 92 -226 244 -544 332 -700 20 -36 51
-92 69 -124 l32 -59 -93 6 c-244 17 -418 73 -600 193 -125 83 -264 257 -324
406 l-19 47 -100 3 c-145 4 -177 1 -171 -20 3 -9 7 -35 11 -56 16 -108 69
-281 121 -394 19 -41 34 -76 34 -78 0 -11 100 -170 148 -234 76 -103 213 -236
324 -315 191 -136 471 -251 713 -291 200 -33 177 -32 2938 -33 l2707 -1 -2
382 -3 383 -1582 1 c-871 0 -1584 2 -1586 5 -4 5 -702 2101 -727 2184 -10 33
-13 51 -7 41 23 -37 92 -108 132 -135 128 -87 277 -144 490 -187 52 -10 298
-14 345 -4 25 4 59 11 75 13 101 18 215 78 291 152 105 104 153 240 148 420
-4 145 -2 136 -276 1045 -10 36 -21 72 -23 80 -2 8 -19 68 -39 133 -42 137
-101 333 -109 362 -3 11 -14 49 -25 85 -43 139 -144 477 -152 505 -4 17 -40
136 -80 265 -39 129 -73 242 -75 250 -1 8 -17 60 -33 115 -17 55 -32 109 -34
119 -3 19 10 20 705 20 l708 1 31 -55 c16 -30 43 -79 59 -107 145 -264 303
-620 405 -913 47 -134 125 -402 138 -472 2 -13 15 -81 29 -153 14 -71 29 -155
32 -185 4 -30 9 -64 11 -75 19 -102 26 -572 11 -729 -22 -240 -84 -517 -170
-761 -36 -102 -114 -292 -147 -355 -10 -19 -21 -42 -24 -50 -23 -58 -181 -326
-317 -536 -220 -340 -252 -420 -191 -476 46 -42 100 -53 257 -51 390 5 734
254 974 704 108 204 208 508 247 753 3 21 7 46 9 55 2 9 6 44 10 76 4 33 9 69
11 79 22 123 22 670 0 821 -3 17 -8 59 -11 95 -4 36 -9 74 -11 85 -1 11 -6 40
-9 65 -3 25 -8 52 -10 60 -2 8 -6 33 -10 55 -52 364 -223 917 -422 1370 -51
117 -215 450 -255 520 -19 33 -50 87 -68 119 l-33 59 94 -7 c145 -10 189 -18
339 -63 198 -59 389 -194 489 -348 35 -54 111 -207 111 -224 0 -6 6 -11 13
-12 29 -2 260 1 263 3 4 5 -24 153 -41 213 -36 129 -114 312 -180 424 -71 119
-234 307 -350 401 -50 41 -176 124 -245 161 -167 91 -427 175 -605 195 -27 3
-63 8 -80 12 -16 3 -1260 8 -2763 9 l-2732 3 2 -382z m3639 -2701 c139 -42
251 -174 275 -323 32 -202 -49 -389 -209 -478 -165 -92 -390 -59 -509 72 -129
142 -158 363 -71 537 48 95 156 176 265 199 73 16 184 13 249 -7z"/>
</g>
</svg>
