<svg version="1" xmlns="http://www.w3.org/2000/svg" width="933.333" height="933.333" viewBox="0 0 700.000000 700.000000"><path d="M131.3 43.4c-.1 31.4.3 43.6 1.1 43.8.6.3 42.4.4 92.8.4l91.8-.1.2 260.8c.2 143.4 0 261.5-.3 262.5-.6 1.6-4.6 1.7-54.3 1.7-29.6 0-54-.4-54.3-.9-.3-.4-.7-8.8-.9-18.5-.3-18.4-1.2-41.7-1.9-51.1-.2-3-.7-9.6-1-14.5-.3-5-.8-10.4-1-12-.4-2.8-.6-5.7-2.1-20.5-.3-3-.9-8-1.4-11-.5-3-1.2-7.5-1.5-10-.3-2.5-.8-5.2-1-6-.2-.8-.6-3.7-1-6.3-.7-5.9-1.8-11.6-4.4-23.2-1.1-5-2.2-10.1-2.4-11.5-1.8-9.6-13.3-46.8-17.1-55.3-.8-1.8-2.7-6.1-4.1-9.7-8.7-21.2-23.5-43.4-38.9-58.3-18.1-17.5-34.9-23.4-65.1-23-19.8.2-34 5.1-44.1 15-6 6-8.7 10.6-10.9 19C6.2 327 9 349.4 15.3 361c6.6 12.2 12 16.6 41.3 33.5 8.3 4.8 18.2 11 22 13.8 14.3 10.7 28.3 27.6 36.9 44.6 7.3 14.7 15.6 41.3 18.9 60.6.3 1.6.8 4.6 1.1 6.5 1.4 7.8 3.6 25.3 4.1 33 .3 3.6.7 8.3.9 10.5.3 2.2.8 14.2 1.1 26.6l.7 22.5-5.9-.2c-26.4-1.1-40.2-3.2-55.6-8.5-23.1-7.8-38.5-21.5-47.7-42.2-2.4-5.4-6.8-19.5-10.1-32.5l-1.1-4.2h-22l.5 16.2c.4 9 .8 17.4 1 18.8.2 1.4.8 5.2 1.1 8.5 1.2 9.9 1.3 10.2 1.9 13.2.3 1.5.8 4.4 1.1 6.3 1.4 8.5 6.4 26 8.6 30.2.5 1 .9 2.3.9 2.9 0 1.7 9.5 20.3 13.1 25.6 12.7 18.7 29.5 32.4 50.1 40.6 7.5 3 22.1 7.2 28.8 8.2 2.5.4 5.3.9 6.4 1.1 1 .2 4.4.6 7.5 1 3.1.3 6.5.9 7.6 1.2 1.1.3 100.6.8 221.2.9l219.2.4v-43.6c0-32.8-.3-43.5-1.2-43.6-.7-.1-41.9-.3-91.7-.4-49.8-.1-91.1-.3-91.7-.4-1-.1-1.3-53.3-1.3-262.4V87.5h53.9c29.7 0 54.2.3 54.6.7.4.4.8 8.7 1 18.5.4 17.4 1.3 41.3 2 52.3 1 15.3 1.5 21.8 1.9 25 .5 3.9 1.3 11.7 2.1 20 .5 4.9 1.6 13.6 2 15 0 .3.5 3.1.9 6.4.4 3.2 1 7 1.2 8.5.3 1.4.9 5.3 1.5 8.6 3.5 20.8 10.6 49.3 17.2 69 14.6 43.1 35.2 75.9 58.7 93.2 14.8 10.8 32.7 15.4 57 14.7 30.7-.9 50-14.4 54.5-37.9.7-3.7.7-14.9 0-19-5-28.7-11.9-37.1-45.5-55.3-5.6-3-14.8-8.9-26.7-17-6.3-4.3-19.1-18.1-25.3-27.3-14.1-21.1-24.9-51.4-29.6-83.4-.4-2.8-.9-5.7-1-6.5-.5-2.3-1.3-8.9-1.9-15-.3-3-.8-7.8-1.1-10.5-.9-7.9-1.2-12.6-2-37.1l-.7-23.2 5.9.4c23.5 1.3 28.6 1.8 39.4 4 33.5 6.8 55.3 23.7 65.5 50.8 2.2 5.9 5.8 17.7 8.5 28.3l1.1 4.3h22.1l-.6-15.8c-.4-8.6-.8-17.1-1.1-18.7-.2-1.7-.7-5.3-.9-8-1.1-9.8-1.8-14.2-4.2-25.2-2.3-10.3-5.3-20.9-7.3-25.8-10.3-24.9-19.7-38.6-35.1-51.4-7.3-6.1-12.2-9.3-20.4-13.4-6.2-3.1-17.8-7.6-21-8.3-1-.2-4.2-1-7-1.8-5.2-1.4-14.1-3-23.1-4.1-2.7-.4-6.1-.9-7.5-1.3C570.6.9 470.9.5 350.4.3L131.3-.1v43.5z"/></svg>