<svg version="1" xmlns="http://www.w3.org/2000/svg" width="346.667" height="346.667" viewBox="0 0 260.000000 260.000000"><path d="M135.7 25.8l-28.8.2.3 11.8.3 11.7 18-.1 18-.2.1 5.2c.1 5.9 1.4 25.1 1.9 27.5.1.9.6 5.2.9 9.6.4 4.4.9 10.2 1.2 12.9l.4 4.9-4.1-6.2c-6.5-9.8-14.7-14.3-25.7-14.3-7 .1-8.9.5-14.1 3.2-5.3 2.6-9.4 7-12.3 12.9-2.1 4.2-2.3 5.9-2.3 21.1 0 14.1 1 32.5 2 38.1.2.9.6 5.2 1 9.5s.8 9 1 10.4c.2 1.4.6 6.3 1 11s.8 10.6 1.1 13.3l.4 4.7H62l-.1-2.8c-.2-4.1-.5-8-1.3-15.7-.3-3.9-.9-9.9-1.2-13.5-.2-3.6-.7-8.3-.9-10.5-.2-2.2-.7-7.4-1-11.5-.3-4.1-.8-9.1-1-11-.2-1.9-.7-6-1-9-3-27.1-8.2-42.4-16.1-47.7-8.3-5.4-20.9-2.1-25 6.6-3.8 7.9-2.6 12.1 7.2 25.6 10.4 14.4 17.3 29.2 21 45.3 3 12.6 4.1 20.7 4.9 36.4l.4 7.8-2.7.1c-18.7.9-27.9-3.2-35.7-16.1-3.1-5.1-4.1-6-6.5-6H.1l2.9 8c8.4 22.7 11.8 27.8 21 31.8 11.3 4.8 27.4 5.6 109.3 5.3l19.7-.1v-11.5c0-8.5-.3-11.5-1.2-11.6-.7-.1-8.8-.1-18 0-9.3.1-16.9-.2-16.9-.6-.1-.4-.3-2.8-.4-5.3-.2-4.7-1.3-19.7-2-26.5-.2-2.2-.6-7.2-.9-11-.4-3.9-.9-9.3-1.2-12l-.6-5 3.9 6c6.8 10.4 14.3 14.6 26.1 14.7 13.5 0 23.3-6.9 27.7-19.7 1.6-4.9 2.1-16.8 1-30.5-.2-3-.7-9.3-1-14-.4-4.7-.8-9.6-1-11-.2-1.4-.7-5.9-1-10-.3-4.1-.8-8.6-1-10-.4-2.6-1.2-11.7-2-22.8L164 49h34l.1 2.7c.1 1.6.2 4.1.4 5.8.1 1.6.6 6.6.9 11 .4 4.4.9 9.6 1.1 11.5.2 1.9.7 7.1 1 11.5 1.3 15.1 1.4 17 2 22.5.9 8.8 1.8 15.6 3.1 24.5 2 13 6 23.9 10.8 29.3 10.3 11.6 30 4.2 30-11.3 0-4.5-1.6-7.5-11.4-21.5-15-21.6-22-44.8-23.5-78.8l-.3-7.2 3.2-.1c18.4-.7 27.4 3.4 35.1 16.1 3.1 5.1 4.1 6 6.5 6 3.1 0 3.2-.2.5-6.5-.6-1.7-3-7.5-5.1-13-5.2-13.3-9.9-18.4-19.9-21.4-8.6-2.5-12-2.9-31.5-3.7-21.8-.8-32.5-.9-65.3-.6zm2 89.5c12.4 8.4 6.9 28.3-8 29.2-5.5.3-8.8-.9-12.6-4.9-6.2-6.4-6.1-16.2.2-22.6 5.3-5.4 13.9-6.1 20.4-1.7z"/></svg>